# xmcd
#
# Track frame offsets: 
#        150
#        30786
#        61556
#        93052
#        124345
#        150503
#        183724
#        215616
#        247169
#        277038
#        306474
#        340567
#
# Disc length: 4756 seconds
#
# Revision: 4
# Processed by: cddbd v1.5.2PL0 Copyright (c) Steve Scherf et al.
# Submitted via: ExactAudioCopy v0.99pb5
#
DISCID=a212920c
DTITLE=Various Artist - Back To Love 03 05
DYEAR=2005
DGENRE=Club
TTITLE0=Ceybil Jeffries - Open Your Heart (Extended Remix)
TTITLE1=Robert Owens - I'll Be Your Friend (Original DEF Mix)
TTITLE2=Inner City - Big Fun (Original 12 Mix)
TTITLE3=Pamela Fernandez - Kickin' In The Beat (Extended Dance Mix)
TTITLE4=Nicole - Rock The House (Club Mix)
TTITLE5=Malaika - So Much Love (12" Choice Mix)
TTITLE6=Little Louis Vega and Marc Anthony - Ride On The Rhythm (Kenlou 
TTITLE6=Rhythm Mix)
TTITLE7=The Fog - Been A Long Time (Gio's Doped Mix)
TTITLE8=Ten City - Right Back To You (Extended Mix)
TTITLE9=Colourblind - Nothing Better (TMVS Club)
TTITLE10=Degrees Of Motion - Celebrate ('96 White Label Mix)
TTITLE11=Jimi Polo - Better Days (Original 12" Club Mix)
EXTD=
EXTT0=
EXTT1=
EXTT2=
EXTT3=
EXTT4=
EXTT5=
EXTT6=
EXTT7=
EXTT8=
EXTT9=
EXTT10=
EXTT11=
PLAYORDER=
